<?xml version="1.0" standalone="no"?>
<!DOCTYPE svg PUBLIC "-//W3C//DTD SVG 20010904//EN"
 "http://www.w3.org/TR/2001/REC-SVG-20010904/DTD/svg10.dtd">
<svg version="1.0" xmlns="http://www.w3.org/2000/svg"
 width="792.000000pt" height="792.000000pt" viewBox="0 0 792.000000 792.000000"
 preserveAspectRatio="xMidYMid meet">
<metadata>
Created by potrace 1.11, written by Peter Selinger 2001-2013
</metadata>
<g transform="translate(0.000000,792.000000) scale(0.100000,-0.100000)"
fill="#000000" stroke="none">
<path d="M2177 6914 c-1 -1 -56 -4 -122 -8 -116 -6 -151 -10 -205 -22 -14 -3
-36 -8 -50 -10 -14 -3 -33 -14 -43 -26 -17 -20 -17 -22 5 -46 29 -31 155 -95
170 -86 7 4 8 3 4 -4 -4 -7 -2 -12 4 -12 7 0 26 -6 43 -14 38 -17 248 -98 262
-101 5 -1 17 -5 25 -8 19 -9 212 -78 225 -81 6 -2 21 -7 35 -13 14 -6 66 -25
115 -42 50 -18 104 -39 120 -46 42 -18 79 -29 88 -27 4 1 7 -3 7 -8 0 -6 6
-10 13 -10 33 0 578 -233 717 -306 35 -19 70 -34 77 -34 7 0 13 -4 13 -10 0
-5 4 -10 9 -10 10 0 211 -110 211 -115 0 -2 -10 -2 -22 1 -13 2 -83 13 -155
24 -73 11 -145 22 -160 25 -16 2 -50 7 -78 10 -27 3 -59 7 -70 9 -29 6 -129
16 -295 30 -41 4 -86 9 -100 11 -14 2 -72 7 -130 10 -58 4 -114 8 -125 9 -11
1 -26 -3 -34 -8 -11 -8 -13 -8 -8 0 8 15 -59 17 -473 18 -300 1 -529 -7 -590
-19 -14 -3 -42 -8 -63 -10 -47 -7 -92 -29 -100 -49 -4 -10 9 -28 35 -50 22
-19 43 -35 47 -34 3 1 40 -15 81 -34 83 -39 304 -124 335 -130 11 -1 22 -6 25
-9 3 -4 40 -18 83 -33 43 -15 88 -31 100 -36 33 -14 220 -82 232 -85 5 -1 24
-8 40 -14 17 -7 64 -26 105 -41 41 -16 104 -41 140 -55 36 -15 70 -28 75 -29
6 -1 19 -7 30 -13 11 -6 23 -12 27 -12 49 -10 467 -203 628 -291 72 -39 74
-41 35 -36 -22 2 -51 7 -65 10 -13 3 -40 8 -60 10 -19 3 -55 8 -80 12 -25 3
-56 7 -70 9 -14 2 -38 6 -55 9 -16 2 -52 7 -80 11 -27 3 -66 8 -85 10 -19 3
-61 7 -94 10 -32 3 -63 8 -67 11 -5 3 -9 -1 -9 -8 0 -9 -2 -10 -8 -2 -4 7 -49
15 -102 19 -52 3 -111 8 -130 10 -38 4 -204 14 -340 21 -47 2 -222 4 -389 5
-241 0 -306 -2 -312 -13 -6 -9 -9 -9 -9 -1 0 12 -57 13 -77 0 -6 -4 -14 -3
-18 3 -4 6 -10 8 -14 6 -4 -3 -38 -8 -76 -11 -199 -19 -261 -53 -196 -108 47
-39 311 -157 352 -157 10 0 20 -4 23 -9 3 -4 25 -15 48 -23 24 -9 115 -42 203
-73 88 -32 174 -63 190 -70 28 -12 167 -63 190 -69 6 -2 27 -10 47 -20 21 -9
41 -16 46 -16 5 0 23 -7 40 -16 17 -8 41 -16 52 -17 11 -1 20 -4 20 -8 0 -4
17 -13 38 -19 20 -7 55 -20 77 -30 40 -17 76 -32 85 -35 3 -1 27 -11 53 -23
27 -12 81 -36 120 -53 191 -82 477 -233 610 -321 32 -21 62 -38 67 -38 5 0 10
-4 12 -8 2 -5 25 -23 52 -42 59 -40 176 -140 230 -195 21 -22 43 -39 48 -37 5
1 7 -2 4 -7 -3 -5 1 -14 10 -22 33 -28 35 -46 6 -77 -15 -16 -63 -69 -107
-118 -44 -48 -100 -109 -125 -135 -164 -172 -302 -320 -331 -354 -19 -22 -39
-44 -45 -50 -44 -41 -144 -179 -144 -199 0 -8 -4 -17 -9 -20 -5 -4 -8 -14 -6
-24 2 -9 4 -20 4 -23 2 -11 46 -26 66 -23 11 2 40 6 65 9 58 8 214 53 358 104
61 22 112 38 112 36 0 -6 -34 -45 -92 -107 -27 -28 -48 -52 -48 -54 0 -2 -17
-21 -37 -42 -72 -73 -127 -137 -125 -144 1 -5 -2 -7 -6 -5 -4 1 -30 -22 -58
-52 -27 -29 -74 -79 -104 -111 -141 -147 -289 -311 -304 -338 -5 -10 -12 -19
-16 -22 -15 -11 -60 -90 -64 -113 -8 -44 13 -59 78 -58 54 0 188 31 286 66
l43 15 -19 -22 c-56 -65 -82 -94 -114 -127 -19 -20 -91 -97 -160 -170 -69 -73
-141 -150 -161 -170 -36 -35 -186 -205 -223 -251 -62 -77 -85 -159 -52 -183
12 -8 141 -1 157 9 5 3 22 7 37 10 98 17 493 163 697 259 175 82 350 168 355
175 3 4 16 11 30 15 14 4 37 16 52 26 14 11 28 19 31 19 3 0 35 18 71 40 36
22 70 40 76 40 5 0 10 4 10 9 0 5 12 14 28 20 15 6 47 25 72 41 25 16 52 33
60 36 8 4 22 13 30 20 8 7 26 19 40 26 33 18 143 92 250 168 47 33 96 68 110
77 125 86 520 409 520 425 0 4 5 8 10 8 27 0 420 393 566 565 23 28 50 60 114
139 58 70 150 203 150 215 0 5 3 11 8 13 20 9 132 213 157 288 1 3 7 17 13 33
7 15 14 38 16 50 3 12 7 33 10 46 10 43 8 125 -3 160 -12 38 -13 36 47 115 83
108 152 220 212 341 114 230 122 350 33 490 l-20 30 93 136 c52 75 98 147 104
160 5 13 14 31 20 39 55 85 112 259 113 350 2 97 -32 165 -130 267 -87 90
-266 221 -369 269 -21 10 -41 20 -44 23 -14 16 -52 31 -62 25 -6 -4 -8 -3 -5
3 6 10 -99 64 -114 60 -4 -1 -15 5 -25 14 -11 9 -55 30 -99 48 -84 34 -110 45
-147 61 -31 13 -240 92 -253 94 -5 1 -74 23 -152 49 -78 26 -150 48 -160 50
-21 4 -159 45 -188 56 -11 4 -32 7 -47 7 -14 -1 -25 1 -23 5 3 3 -19 11 -48
18 -74 16 -81 18 -192 45 -84 20 -185 43 -280 62 -11 2 -31 6 -45 9 -14 2 -38
7 -55 10 -16 3 -40 7 -51 9 -12 2 -37 7 -55 10 -19 3 -43 7 -54 10 -11 2 -40
7 -65 11 -70 11 -93 14 -120 20 -14 3 -47 7 -75 10 -27 3 -75 10 -105 15 -70
12 -184 25 -232 25 -21 0 -38 3 -38 6 0 3 -22 6 -49 8 -28 1 -59 4 -70 6 -11
2 -60 6 -108 10 -48 3 -111 8 -140 10 -264 20 -475 25 -492 11 -11 -8 -13 -8
-7 1 5 10 -44 12 -224 11 -127 -2 -232 -3 -233 -4z"/>
</g>
</svg>
